<svg width="22" height="17" viewBox="0 0 22 17" fill="none" xmlns="http://www.w3.org/2000/svg">
<path d="M14.0712 7.19844L10.0364 4.95444C9.7995 4.8227 9.53091 4.75346 9.25755 4.75365C8.9842 4.75384 8.71571 4.82347 8.47901 4.95554C8.24232 5.08762 8.04574 5.27749 7.90901 5.50612C7.77228 5.73475 7.7002 5.99409 7.7 6.25813V10.744C7.6967 11.2816 7.9937 11.7789 8.4766 12.0445C8.71336 12.1781 8.98256 12.2487 9.25675 12.249C9.53095 12.2494 9.80035 12.1796 10.0375 12.0466L14.0712 9.80262C14.3082 9.67105 14.505 9.48144 14.6419 9.25292C14.7788 9.02441 14.8508 8.76507 14.8508 8.50106C14.8508 8.23706 14.7788 7.97772 14.6419 7.7492C14.505 7.52069 14.3082 7.33108 14.0712 7.1995V7.19844ZM13.5212 8.87931L9.4886 11.1244C9.41872 11.164 9.33917 11.1849 9.25815 11.1849C9.17713 11.1849 9.09758 11.164 9.0277 11.1244C8.95777 11.0861 8.89975 11.0305 8.8597 10.9632C8.81965 10.8959 8.79903 10.8195 8.8 10.7419V6.25813C8.79923 6.1807 8.81994 6.10448 8.85998 6.0374C8.90002 5.97032 8.95794 5.91483 9.0277 5.87669C9.09697 5.83596 9.17651 5.81442 9.2576 5.81442C9.33869 5.81442 9.41823 5.83596 9.4875 5.87669L13.5212 8.12175C13.5908 8.1597 13.6486 8.21482 13.6889 8.28146C13.7292 8.34811 13.7504 8.42389 13.7504 8.50106C13.7504 8.57823 13.7292 8.65402 13.6889 8.72066C13.6486 8.78731 13.5908 8.84136 13.5212 8.87931ZM18.7 0H3.3C2.42505 0.000843853 1.58619 0.33694 0.967513 0.934529C0.348832 1.53212 0.000873637 2.34238 0 3.1875V13.8125C0.000873637 14.6576 0.348832 15.4679 0.967513 16.0655C1.58619 16.6631 2.42505 16.9992 3.3 17H18.7C19.5749 16.9992 20.4138 16.6631 21.0325 16.0655C21.6512 15.4679 21.9991 14.6576 22 13.8125V3.1875C21.9991 2.34238 21.6512 1.53212 21.0325 0.934529C20.4138 0.33694 19.5749 0.000843853 18.7 0ZM20.9 13.8125C20.8991 14.3758 20.6671 14.9158 20.2547 15.3142C19.8423 15.7125 19.2832 15.9367 18.7 15.9375H3.3C2.71679 15.9367 2.15772 15.7125 1.74533 15.3142C1.33294 14.9158 1.10087 14.3758 1.1 13.8125V3.1875C1.10087 2.62417 1.33294 2.08416 1.74533 1.68583C2.15772 1.2875 2.71679 1.06334 3.3 1.0625H18.7C19.2832 1.06334 19.8423 1.2875 20.2547 1.68583C20.6671 2.08416 20.8991 2.62417 20.9 3.1875V13.8125Z" fill="#131926"/>
</svg>
