<svg width="21" height="12" viewBox="0 0 21 12" fill="none" xmlns="http://www.w3.org/2000/svg">
<path d="M20.4421 3.14208L11.6038 11.5981C11.455 11.7442 11.2938 11.848 11.1202 11.9094C10.9467 11.9707 10.7607 12.001 10.5623 12C10.3639 12 10.178 11.9698 10.0044 11.9094C9.8308 11.849 9.66961 11.7452 9.52083 11.5981L0.520739 3.14208C0.17358 2.80108 1.14779e-07 2.37483 1.20879e-07 1.86333C1.26978e-07 1.35182 0.185978 0.913396 0.557935 0.548038C0.929891 0.182679 1.36384 1.62636e-08 1.85978 2.21777e-08C2.35572 2.80917e-08 2.78967 0.182679 3.16163 0.548038L10.5623 7.433L17.8384 0.548038C18.1855 0.207037 18.6135 0.0365345 19.1224 0.0365345C19.6312 0.0365345 20.0711 0.219215 20.4421 0.584573C20.814 0.949931 21 1.37618 21 1.86333C21 2.35047 20.814 2.77672 20.4421 3.14208Z" fill="white"/>
</svg>
