<svg width="19" height="17" viewBox="0 0 19 17" fill="none" xmlns="http://www.w3.org/2000/svg">
<path d="M0.419922 17V0.799999H3.93992C5.07326 0.799999 5.95326 0.999999 6.57992 1.4C7.21992 1.78667 7.67326 2.34 7.93992 3.06C8.20659 3.78 8.33992 4.61333 8.33992 5.56V12C8.33992 13 8.20659 13.88 7.93992 14.64C7.67326 15.3867 7.23326 15.9667 6.61992 16.38C6.00659 16.7933 5.15992 17 4.07992 17H0.419922ZM1.93992 15.86H3.97992C4.83326 15.86 5.45992 15.6867 5.85992 15.34C6.25992 14.98 6.51326 14.4933 6.61992 13.88C6.72659 13.2533 6.77992 12.5467 6.77992 11.76V5.72C6.77992 4.90667 6.70659 4.22667 6.55992 3.68C6.42659 3.12 6.15326 2.7 5.73992 2.42C5.33992 2.12667 4.73326 1.98 3.91992 1.98H1.93992V15.86Z" fill="#131926"/>
<path d="M10.4096 17V15.92L14.7696 9.24C15.0896 8.74667 15.3896 8.27333 15.6696 7.82C15.9496 7.35333 16.1763 6.86667 16.3496 6.36C16.5363 5.85333 16.6296 5.28 16.6296 4.64C16.6296 3.77333 16.4496 3.09333 16.0896 2.6C15.7429 2.10667 15.2029 1.86 14.4696 1.86C13.8163 1.86 13.3096 2.00667 12.9496 2.3C12.5896 2.59333 12.3363 3 12.1896 3.52C12.0563 4.02667 11.9896 4.6 11.9896 5.24V5.6H10.5296V5.2C10.5296 4.2 10.6629 3.36667 10.9296 2.7C11.1963 2.02 11.6096 1.50667 12.1696 1.16C12.7429 0.813332 13.4896 0.639999 14.4096 0.639999C15.6363 0.639999 16.5563 1.00667 17.1696 1.74C17.7829 2.46 18.0896 3.46667 18.0896 4.76C18.0896 5.41333 17.9963 6.01333 17.8096 6.56C17.6229 7.10667 17.3829 7.63333 17.0896 8.14C16.7963 8.63333 16.4896 9.13333 16.1696 9.64L12.1296 15.76H17.7496V17H10.4096Z" fill="#131926"/>
</svg>
