<svg width="23" height="13" viewBox="0 0 23 13" fill="none" xmlns="http://www.w3.org/2000/svg">
<path d="M0.611073 9.59608L10.2911 0.435409C10.454 0.277087 10.6306 0.164679 10.8207 0.0981841C11.0108 0.0316889 11.2145 -0.0010306 11.4318 2.4876e-05C11.649 2.48734e-05 11.8527 0.0327444 12.0428 0.0981841C12.2329 0.163624 12.4095 0.276032 12.5724 0.435409L22.4297 9.59608C22.8099 9.9655 23 10.4273 23 10.9814C23 11.5355 22.7963 12.0105 22.3889 12.4063C21.9815 12.8021 21.5063 13 20.9631 13C20.4199 13 19.9446 12.8021 19.5373 12.4063L11.4318 4.94758L3.46274 12.4063C3.08252 12.7757 2.61376 12.9604 2.05646 12.9604C1.49916 12.9604 1.01737 12.7625 0.611073 12.3667C0.203692 11.9709 1.37245e-07 11.5091 1.30952e-07 10.9814C1.24659e-07 10.4537 0.203692 9.99189 0.611073 9.59608Z" fill="#131926"/>
</svg>
