<svg width="99" height="100" viewBox="0 0 99 100" fill="none" xmlns="http://www.w3.org/2000/svg">
<path d="M-1 50V100H15.435H31.8802L39.6546 92.2256L47.4391 84.4411L51.3464 88.3484L55.2538 92.2457L55.9486 91.7825C58.0937 90.3525 60.0171 88.3182 60.9235 86.5458C61.8298 84.7432 62.1521 82.7392 61.8399 80.7956C61.4471 78.4189 59.9567 75.428 57.8419 72.8097C57.4693 72.3364 51.5176 65.4381 44.6294 57.4622L32.1118 42.9708L32.3434 42.7492C32.4743 42.6284 35.3041 40.1108 38.6173 37.1601L44.6596 31.7925L44.9013 32.0846C45.0423 32.2457 50.8429 38.9627 57.8016 47.0091C64.7503 55.0655 70.7523 62.0443 71.1349 62.5176C75.3444 67.8046 77.6506 73.6354 77.6506 79.003C77.6506 81.0876 77.2276 83.6354 76.5327 85.7301C76.0393 87.2407 74.6798 90.0201 73.7331 91.4401C71.9003 94.2296 69.2618 97.1601 66.422 99.567L65.9184 100H82.4642H99V76.9889V53.9678L85.6868 38.57C78.3656 30.0906 72.3535 23.1621 72.3233 23.1621C72.2931 23.1621 68.7785 26.2739 64.5086 30.0604C60.2487 33.857 56.7039 36.9486 56.6435 36.9386C56.4622 36.8983 48.9396 28.1672 48.9799 28.0463C49.0101 27.9658 78.4965 1.65156 80.0171 0.35247L80.4199 0H39.715H-1V50Z" fill="#131926"/>
</svg>
